<svg width="2880" height="1378" viewBox="0 0 2880 1378" fill="none" xmlns="http://www.w3.org/2000/svg" role="img" aria-labelledby="title desc">
  <title id="title">TableBoost desktop Revenue Dashboard screenshot</title>
  <desc id="desc">TableBoost desktop app showing a Revenue Dashboard with operations, customer metrics, an Add Visit button, recent activity, and a left navigation sidebar.</desc>
  <rect width="2880" height="1378" rx="10" fill="#F7F4EF"/>
  <rect width="460" height="1378" fill="#FFFCF8"/>
  <line x1="459" y1="0" x2="459" y2="1378" stroke="#E8E1D8" stroke-width="2"/>
  <g font-family="Inter, Arial, sans-serif">
    <text x="50" y="70" fill="#141414" font-size="32" font-weight="800">♛</text>
    <text x="104" y="70" fill="#141414" font-size="34" font-weight="800">TableBoost</text>
    <circle cx="402" cy="58" r="28" fill="#fff" stroke="#E0DAD3" stroke-width="2"/>
    <text x="389" y="68" fill="#9E9790" font-size="24">↤</text>
    <rect x="28" y="158" width="402" height="72" rx="18" fill="#F4512C"/>
    <text x="156" y="204" fill="#fff" font-size="24" font-weight="800">＋ Add Visit</text>
    <text x="50" y="295" fill="#A9A19A" font-size="14" font-weight="900" letter-spacing="4">CORE OPERATIONS</text>
    <rect x="22" y="314" width="416" height="68" rx="16" fill="#FFF2E7"/>
    <rect x="22" y="330" width="5" height="36" rx="3" fill="#F4512C"/>
    <text x="48" y="356" fill="#F4512C" font-size="27">⌂</text>
    <text x="98" y="356" fill="#F4512C" font-size="24" font-weight="800">Dashboard</text>
    <text x="48" y="426" fill="#A49D96" font-size="27">♧</text><text x="98" y="426" fill="#6F6862" font-size="24">Customers</text>
    <text x="48" y="496" fill="#A49D96" font-size="27">▦</text><text x="98" y="496" fill="#6F6862" font-size="24">Visits</text>
    <text x="50" y="580" fill="#A9A19A" font-size="14" font-weight="900" letter-spacing="4">GROWTH &amp; ENGAGEMENT</text>
    <text x="48" y="644" fill="#A49D96" font-size="27">✈</text><text x="98" y="644" fill="#6F6862" font-size="24">Campaigns</text><rect x="286" y="621" width="130" height="31" rx="9" fill="#FBFAF8" stroke="#D7D0C8"/><text x="312" y="642" fill="#625B55" font-size="14" font-weight="900">🔒 GROWTH</text>
    <text x="48" y="714" fill="#A49D96" font-size="27">□</text><text x="98" y="714" fill="#6F6862" font-size="24">Messages</text><rect x="286" y="691" width="130" height="31" rx="9" fill="#FBFAF8" stroke="#D7D0C8"/><text x="312" y="712" fill="#625B55" font-size="14" font-weight="900">🔒 GROWTH</text>
    <text x="48" y="784" fill="#A49D96" font-size="27">♕</text><text x="98" y="784" fill="#6F6862" font-size="24">Loyalty Re...</text><rect x="286" y="761" width="130" height="31" rx="9" fill="#FBFAF8" stroke="#D7D0C8"/><text x="312" y="782" fill="#625B55" font-size="14" font-weight="900">🔒 GROWTH</text>
    <text x="50" y="875" fill="#A9A19A" font-size="14" font-weight="900" letter-spacing="4">ADMINISTRATION</text>
    <text x="48" y="938" fill="#A49D96" font-size="27">⚭</text><text x="98" y="938" fill="#6F6862" font-size="24">Automations</text><rect x="318" y="912" width="98" height="31" rx="9" fill="#FBFAF8" stroke="#D7D0C8"/><text x="343" y="933" fill="#625B55" font-size="14" font-weight="900">🔒 PRO</text>
    <text x="48" y="1008" fill="#A49D96" font-size="27">⚙</text><text x="98" y="1008" fill="#6F6862" font-size="24">Settings</text>
    <text x="48" y="1078" fill="#A49D96" font-size="27">♢</text><text x="98" y="1078" fill="#6F6862" font-size="24">Governance</text><rect x="318" y="1052" width="98" height="31" rx="9" fill="#FBFAF8" stroke="#D7D0C8"/><text x="343" y="1073" fill="#625B55" font-size="14" font-weight="900">🔒 PRO</text>
    <line x1="0" y1="1156" x2="460" y2="1156" stroke="#E8E1D8"/>
    <text x="44" y="1219" fill="#6F6862" font-size="20" font-weight="700">Theme</text><circle cx="386" cy="1216" r="28" fill="#fff" stroke="#DAD3CC" stroke-width="2"/><text x="374" y="1225" fill="#9F9790" font-size="23">☾</text>
    <circle cx="70" cy="1302" r="29" fill="#fff" stroke="#ECE7E1"/><text x="62" y="1312" fill="#7D766F" font-size="23">♙</text><text x="120" y="1298" fill="#171717" font-size="21" font-weight="800">Sam Patel</text><text x="120" y="1324" fill="#8B837B" font-size="13" font-weight="800">OWNER</text><text x="385" y="1313" fill="#AAA39D" font-size="28">↪</text>
    <text x="808" y="78" fill="#E65635" font-size="15" font-weight="900" letter-spacing="8">INTELLIGENCE HUB</text>
    <text x="806" y="143" fill="#171717" font-size="52" font-weight="900">Revenue Dashboard</text>
    <circle cx="2500" cy="100" r="34" fill="#fff" stroke="#DDD6CF"/><text x="2485" y="111" fill="#817A74" font-size="24">⟳</text>
    <rect x="808" y="204" width="922" height="82" rx="22" fill="#F2F1EF"/>
    <rect x="814" y="208" width="300" height="74" rx="18" fill="#fff" filter="url(#shadowSm)"/>
    <text x="870" y="254" fill="#F4512C" font-size="23">⌁</text><text x="916" y="254" fill="#F4512C" font-size="23" font-weight="900">Operations</text>
    <text x="1160" y="254" fill="#77716B" font-size="23">↗</text><text x="1196" y="254" fill="#77716B" font-size="23" font-weight="800">Intelligence 🔒</text>
    <text x="1490" y="254" fill="#77716B" font-size="23">✣</text><text x="1530" y="254" fill="#77716B" font-size="23" font-weight="800">Growth 🔒</text>
  </g>
  <g font-family="Inter, Arial, sans-serif" filter="url(#cardShadow)">
    <rect x="808" y="334" width="408" height="176" rx="31" fill="#fff"/><text x="844" y="390" fill="#77716B" font-size="20" font-weight="800" letter-spacing="2">CUSTOMERS</text><text x="844" y="459" fill="#171717" font-size="56" font-weight="900">49</text><rect x="1115" y="370" width="58" height="58" rx="18" fill="#FFF4E8"/><text x="1130" y="408" fill="#F4512C" font-size="29">♙</text>
    <rect x="1248" y="334" width="408" height="176" rx="31" fill="#fff"/><text x="1284" y="390" fill="#77716B" font-size="20" font-weight="800" letter-spacing="2">TOTAL VISITS</text><text x="1284" y="459" fill="#171717" font-size="56" font-weight="900">74</text><rect x="1565" y="370" width="58" height="58" rx="18" fill="#F5F4F2"/><text x="1579" y="408" fill="#6D6862" font-size="29">♮</text>
    <rect x="1686" y="334" width="408" height="176" rx="31" fill="#fff"/><text x="1722" y="390" fill="#77716B" font-size="20" font-weight="800" letter-spacing="2">REPEAT RATE</text><text x="1722" y="459" fill="#171717" font-size="56" font-weight="900">27%</text><rect x="1989" y="370" width="58" height="58" rx="18" fill="#E9FFF4"/><text x="2002" y="408" fill="#43A777" font-size="29">↔</text>
    <rect x="2124" y="334" width="408" height="176" rx="31" fill="#fff"/><text x="2160" y="390" fill="#77716B" font-size="20" font-weight="800" letter-spacing="2">REDEEMED</text><text x="2160" y="459" fill="#171717" font-size="56" font-weight="900">0</text><rect x="2425" y="370" width="58" height="58" rx="18" fill="#FFF4E8"/><text x="2440" y="408" fill="#F4512C" font-size="29">♕</text>
  </g>
  <rect x="806" y="554" width="1728" height="103" rx="26" fill="#F4512C" filter="url(#buttonShadow)"/>
  <text x="1582" y="618" fill="#fff" font-family="Inter, Arial, sans-serif" font-size="29" font-weight="900">＋ Add Visit</text>
  <g font-family="Inter, Arial, sans-serif">
    <rect x="808" y="704" width="1724" height="674" rx="34" fill="#fff" stroke="#E7E0D8" stroke-width="2"/>
    <text x="844" y="762" fill="#171717" font-size="29" font-weight="900">Recent Activity</text><text x="844" y="793" fill="#6F6862" font-size="18">Latest 10 records</text>
    <rect x="2330" y="736" width="168" height="64" rx="18" fill="#fff" stroke="#DCD6CF"/><text x="2353" y="776" fill="#5F5852" font-size="19" font-weight="800">View All  ›</text>
    <line x1="808" y1="831" x2="2532" y2="831" stroke="#EDE8E3"/>
    <g font-size="21"><rect x="852" y="872" width="74" height="74" rx="19" fill="#FFF7ED"/><text x="881" y="919" fill="#C4412B" font-size="24" font-weight="900">K</text><text x="944" y="902" fill="#171717" font-size="25" font-weight="900">Ken</text><text x="944" y="933" fill="#6F6862">3729472293</text><text x="2410" y="895" fill="#171717" font-size="23" font-weight="900" text-anchor="end">$14.08</text><text x="2410" y="922" fill="#6F6862" font-weight="800" text-anchor="end">19 Jun</text><text x="2410" y="947" fill="#9B948E" font-size="16" text-anchor="end">11:28</text></g>
    <line x1="808" y1="988" x2="2532" y2="988" stroke="#EDE8E3"/>
    <g font-size="21"><rect x="852" y="1029" width="74" height="74" rx="19" fill="#FFF7ED"/><text x="881" y="1076" fill="#C4412B" font-size="24" font-weight="900">M</text><text x="944" y="1059" fill="#171717" font-size="25" font-weight="900">Maggie</text><text x="944" y="1090" fill="#6F6862">9473726481</text><text x="2410" y="1052" fill="#171717" font-size="23" font-weight="900" text-anchor="end">$9.00</text><text x="2410" y="1079" fill="#6F6862" font-weight="800" text-anchor="end">19 Jun</text><text x="2410" y="1104" fill="#9B948E" font-size="16" text-anchor="end">11:27</text></g>
    <line x1="808" y1="1145" x2="2532" y2="1145" stroke="#EDE8E3"/>
    <g font-size="21"><rect x="852" y="1186" width="74" height="74" rx="19" fill="#FFF7ED"/><text x="881" y="1233" fill="#C4412B" font-size="24" font-weight="900">J</text><text x="944" y="1216" fill="#171717" font-size="25" font-weight="900">Joe</text><text x="944" y="1247" fill="#6F6862">4537583927</text><text x="2410" y="1209" fill="#171717" font-size="23" font-weight="900" text-anchor="end">$27.47</text><text x="2410" y="1236" fill="#6F6862" font-weight="800" text-anchor="end">19 Jun</text><text x="2410" y="1261" fill="#9B948E" font-size="16" text-anchor="end">11:25</text></g>
    <line x1="808" y1="1302" x2="2532" y2="1302" stroke="#EDE8E3"/>
  </g>
  <defs>
    <filter id="shadowSm" x="790" y="196" width="348" height="118" filterUnits="userSpaceOnUse"><feDropShadow dx="0" dy="5" stdDeviation="8" flood-color="#000" flood-opacity="0.08"/></filter>
    <filter id="cardShadow" x="760" y="300" width="1815" height="250" filterUnits="userSpaceOnUse"><feDropShadow dx="0" dy="14" stdDeviation="18" flood-color="#000" flood-opacity="0.08"/></filter>
    <filter id="buttonShadow" x="780" y="535" width="1784" height="160" filterUnits="userSpaceOnUse"><feDropShadow dx="0" dy="16" stdDeviation="16" flood-color="#F4512C" flood-opacity="0.22"/></filter>
  </defs>
</svg>
