<svg width="946" height="2048" viewBox="0 0 946 2048" fill="none" xmlns="http://www.w3.org/2000/svg" role="img" aria-labelledby="title desc">
  <title id="title">TableBoost mobile Revenue Dashboard screenshot</title>
  <desc id="desc">TableBoost mobile app showing an Intelligence Hub Revenue Dashboard with operations metrics, Add Visit, recent activity, and bottom navigation.</desc>
  <rect width="946" height="2048" fill="url(#bg)"/>
  <g font-family="Inter, Arial, sans-serif">
    <text x="36" y="62" fill="#E65635" font-size="27" font-weight="900" letter-spacing="12">INTELLIGENCE HUB</text>
    <text x="36" y="131" fill="#171717" font-size="52" font-weight="900">Revenue Dashboard</text>
    <rect x="824" y="46" width="86" height="86" rx="25" fill="#fff" stroke="#E3DED8" stroke-width="2" filter="url(#softShadow)"/>
    <text x="846" y="101" fill="#746E68" font-size="43">⟳</text>
    <rect x="36" y="194" width="874" height="106" rx="53" fill="#F3F2F0"/>
    <rect x="44" y="202" width="280" height="90" rx="26" fill="#fff" filter="url(#softShadow)"/>
    <text x="76" y="259" fill="#F4512C" font-size="31">⌁</text><text x="128" y="259" fill="#F4512C" font-size="34" font-weight="900">Operations</text>
    <text x="340" y="258" fill="#77716B" font-size="29">↗</text><text x="388" y="258" fill="#77716B" font-size="33" font-weight="800">Intelligence 🔒</text>
    <text x="665" y="258" fill="#77716B" font-size="31">✣</text><text x="711" y="258" fill="#77716B" font-size="33" font-weight="800">Growth 🔒</text>
  </g>
  <g font-family="Inter, Arial, sans-serif" filter="url(#cardShadow)">
    <rect x="36" y="346" width="422" height="207" rx="39" fill="#fff"/><text x="82" y="416" fill="#77716B" font-size="28" font-weight="800" letter-spacing="3">CUSTOMERS</text><text x="82" y="489" fill="#171717" font-size="55" font-weight="900">49</text><rect x="334" y="390" width="80" height="79" rx="25" fill="#FFF4E8"/><text x="360" y="442" fill="#F4512C" font-size="42">♙</text>
    <rect x="488" y="346" width="422" height="207" rx="39" fill="#fff"/><text x="532" y="416" fill="#77716B" font-size="28" font-weight="800" letter-spacing="3">TOTAL VISITS</text><text x="532" y="489" fill="#171717" font-size="55" font-weight="900">74</text><rect x="785" y="390" width="80" height="79" rx="25" fill="#F5F4F2"/><text x="811" y="442" fill="#6D6862" font-size="42">♮</text>
    <rect x="36" y="582" width="422" height="207" rx="39" fill="#fff"/><text x="82" y="653" fill="#77716B" font-size="28" font-weight="800" letter-spacing="3">REPEAT RATE</text><text x="82" y="727" fill="#171717" font-size="55" font-weight="900">27%</text><rect x="334" y="627" width="80" height="79" rx="25" fill="#E9FFF4"/><text x="356" y="679" fill="#43A777" font-size="42">↔</text>
    <rect x="488" y="582" width="422" height="207" rx="39" fill="#fff"/><text x="532" y="653" fill="#77716B" font-size="28" font-weight="800" letter-spacing="3">REDEEMED</text><text x="532" y="727" fill="#171717" font-size="55" font-weight="900">0</text><rect x="785" y="627" width="80" height="79" rx="25" fill="#FFF4E8"/><text x="811" y="679" fill="#F4512C" font-size="42">♕</text>
  </g>
  <rect x="35" y="844" width="876" height="123" rx="34" fill="#F4512C" filter="url(#buttonShadow)"/>
  <text x="370" y="919" fill="#fff" font-family="Inter, Arial, sans-serif" font-size="36" font-weight="900">＋ Add Visit</text>
  <g font-family="Inter, Arial, sans-serif">
    <rect x="36" y="1021" width="874" height="1028" rx="39" fill="#fff" stroke="#E7E0D8" stroke-width="2" filter="url(#panelShadow)"/>
    <text x="74" y="1092" fill="#171717" font-size="37" font-weight="900">Recent Activity</text><text x="74" y="1132" fill="#6F6862" font-size="27">Latest 10 records</text>
    <rect x="666" y="1058" width="206" height="78" rx="26" fill="#fff" stroke="#DCD6CF" stroke-width="2"/><text x="698" y="1108" fill="#5F5852" font-size="27" font-weight="800">View All  ›</text>
    <line x1="36" y1="1174" x2="910" y2="1174" stroke="#EDE8E3" stroke-width="2"/>
    <g><rect x="80" y="1208" width="91" height="90" rx="24" fill="#FFF7ED"/><text x="115" y="1264" fill="#C4412B" font-size="31" font-weight="900">K</text><text x="195" y="1245" fill="#171717" font-size="32" font-weight="900">Ken</text><text x="195" y="1286" fill="#6F6862" font-size="29">3729472293</text><text x="764" y="1242" fill="#171717" font-size="32" font-weight="900" text-anchor="end">$14.08</text><text x="764" y="1284" fill="#6F6862" font-size="29" font-weight="800" text-anchor="end">19 Jun</text><text x="864" y="1261" fill="#A59E98" font-size="23" font-weight="900" text-anchor="end">19 JUN</text></g>
    <line x1="36" y1="1334" x2="910" y2="1334" stroke="#EDE8E3" stroke-width="2"/>
    <g><rect x="80" y="1369" width="91" height="90" rx="24" fill="#FFF7ED"/><text x="113" y="1425" fill="#C4412B" font-size="31" font-weight="900">M</text><text x="195" y="1406" fill="#171717" font-size="32" font-weight="900">Maggie</text><text x="195" y="1447" fill="#6F6862" font-size="29">9473726481</text><text x="764" y="1403" fill="#171717" font-size="32" font-weight="900" text-anchor="end">$9.00</text><text x="764" y="1445" fill="#6F6862" font-size="29" font-weight="800" text-anchor="end">19 Jun</text><text x="864" y="1422" fill="#A59E98" font-size="23" font-weight="900" text-anchor="end">19 JUN</text></g>
    <line x1="36" y1="1494" x2="910" y2="1494" stroke="#EDE8E3" stroke-width="2"/>
    <g><rect x="80" y="1530" width="91" height="90" rx="24" fill="#FFF7ED"/><text x="116" y="1586" fill="#C4412B" font-size="31" font-weight="900">J</text><text x="195" y="1567" fill="#171717" font-size="32" font-weight="900">Joe</text><text x="195" y="1608" fill="#6F6862" font-size="29">4537583927</text><text x="764" y="1564" fill="#171717" font-size="32" font-weight="900" text-anchor="end">$27.47</text><text x="764" y="1606" fill="#6F6862" font-size="29" font-weight="800" text-anchor="end">19 Jun</text><text x="864" y="1583" fill="#A59E98" font-size="23" font-weight="900" text-anchor="end">19 JUN</text></g>
    <line x1="36" y1="1655" x2="910" y2="1655" stroke="#EDE8E3" stroke-width="2"/>
    <g><rect x="80" y="1690" width="91" height="90" rx="24" fill="#FFF7ED"/><text x="111" y="1746" fill="#C4412B" font-size="31" font-weight="900">W</text><text x="195" y="1727" fill="#171717" font-size="32" font-weight="900">Walk-in Customer</text><text x="195" y="1768" fill="#6F6862" font-size="29">2346375937</text><text x="764" y="1724" fill="#171717" font-size="32" font-weight="900" text-anchor="end">$12.00</text><text x="764" y="1766" fill="#6F6862" font-size="29" font-weight="800" text-anchor="end">24 May</text><text x="864" y="1743" fill="#A59E98" font-size="23" font-weight="900" text-anchor="end">24 MAY</text></g>
    <line x1="36" y1="1815" x2="910" y2="1815" stroke="#EDE8E3" stroke-width="2"/>
    <g><rect x="80" y="1850" width="91" height="90" rx="24" fill="#FFF7ED"/><text x="116" y="1906" fill="#C4412B" font-size="31" font-weight="900">T</text><text x="195" y="1887" fill="#171717" font-size="32" font-weight="900">Test User</text><text x="764" y="1884" fill="#171717" font-size="32" font-weight="900" text-anchor="end">$15.50</text><text x="864" y="1903" fill="#A59E98" font-size="23" font-weight="900" text-anchor="end">24 MAY</text></g>
  </g>
  <g font-family="Inter, Arial, sans-serif">
    <rect x="0" y="1907" width="946" height="141" fill="#fff" filter="url(#topShadow)"/>
    <text x="90" y="1968" fill="#F4512C" font-size="45">⌂</text><text x="78" y="2013" fill="#F4512C" font-size="23" font-weight="900">Home</text>
    <text x="283" y="1968" fill="#A39B94" font-size="43">♧</text><text x="240" y="2013" fill="#A39B94" font-size="23" font-weight="700">Customers</text>
    <text x="464" y="1968" fill="#A39B94" font-size="43">▦</text><text x="453" y="2013" fill="#A39B94" font-size="23" font-weight="700">Visits</text>
    <circle cx="657" cy="1934" r="58" fill="#F4512C" stroke="#fff" stroke-width="10" filter="url(#fabShadow)"/><text x="630" y="1952" fill="#fff" font-size="70">＋</text>
    <text x="816" y="1968" fill="#A39B94" font-size="43">☰</text><text x="805" y="2013" fill="#A39B94" font-size="23" font-weight="700">Menu</text>
  </g>
  <defs>
    <linearGradient id="bg" x1="0" y1="0" x2="946" y2="2048" gradientUnits="userSpaceOnUse"><stop stop-color="#F8F3EC"/><stop offset="0.52" stop-color="#FFFEFC"/><stop offset="1" stop-color="#F8F3EC"/></linearGradient>
    <filter id="softShadow" x="20" y="30" width="920" height="300" filterUnits="userSpaceOnUse"><feDropShadow dx="0" dy="6" stdDeviation="9" flood-color="#000" flood-opacity="0.08"/></filter>
    <filter id="cardShadow" x="0" y="320" width="946" height="500" filterUnits="userSpaceOnUse"><feDropShadow dx="0" dy="12" stdDeviation="16" flood-color="#000" flood-opacity="0.09"/></filter>
    <filter id="buttonShadow" x="0" y="810" width="946" height="190" filterUnits="userSpaceOnUse"><feDropShadow dx="0" dy="18" stdDeviation="18" flood-color="#F4512C" flood-opacity="0.22"/></filter>
    <filter id="panelShadow" x="0" y="990" width="946" height="1090" filterUnits="userSpaceOnUse"><feDropShadow dx="0" dy="8" stdDeviation="12" flood-color="#000" flood-opacity="0.06"/></filter>
    <filter id="topShadow" x="0" y="1870" width="946" height="178" filterUnits="userSpaceOnUse"><feDropShadow dx="0" dy="-6" stdDeviation="10" flood-color="#000" flood-opacity="0.08"/></filter>
    <filter id="fabShadow" x="570" y="1847" width="174" height="174" filterUnits="userSpaceOnUse"><feDropShadow dx="0" dy="10" stdDeviation="12" flood-color="#000" flood-opacity="0.16"/></filter>
  </defs>
</svg>
